<mxfile host="app.diagrams.net" modified="2023-10-09T16:08:51.082Z" agent="Mozilla/5.0 (Macintosh; Intel Mac OS X 10.15; rv:109.0) Gecko/20100101 Firefox/117.0" version="22.0.4" etag="sFlWTvC24s_0eEzpjPhz" type="github">
  <diagram name="Page-1" id="fuCyFbmpWR4aBFw1FEri">
    <mxGraphModel>
      <root>
        <mxCell id="0" />
        <mxCell id="1" parent="0" />
      </root>
    </mxGraphModel>
  </diagram>
</mxfile>
